<?xml version="1.0" encoding="utf-8"?>
<!-- Generator: Adobe Illustrator 25.3.1, SVG Export Plug-In . SVG Version: 6.00 Build 0)  -->
<svg version="1.1" id="Ebene_1" xmlns="http://www.w3.org/2000/svg" xmlns:xlink="http://www.w3.org/1999/xlink" x="0px" y="0px"
	 viewBox="0 0 1115.7 134.9" style="enable-background:new 0 0 1115.7 134.9;" xml:space="preserve">
<style type="text/css">
	.st0{fill:#231F20;}
	.st1{fill:url(#SVGID_1_);}
	.st2{opacity:0.65;fill:url(#SVGID_2_);enable-background:new    ;}
	.st3{fill:#FF5F00;}
	.st4{fill:#EB001B;}
	.st5{fill:#F79E1B;}
	.st6{fill:url(#SVGID_3_);}
	.st7{fill:#006095;}
	.st8{fill:#FFFFFF;}
</style>
<g>
	<path class="st0" d="M743.2,38.8h-17.9v62.6h17.8c9.5,0,16.3-2.2,22.3-7.2c7.1-5.9,11.4-14.8,11.4-24
		C776.8,51.7,763,38.8,743.2,38.8z M757.5,85.8c-3.8,3.5-8.8,5-16.7,5h-3.3V49.4h3.3c7.9,0,12.7,1.4,16.7,5.1
		c4.2,3.8,6.8,9.6,6.8,15.6C764.2,76.1,761.7,82.1,757.5,85.8z M782.4,38.8h12.2v62.6h-12.2V38.8z M824.5,62.8
		c-7.3-2.7-9.5-4.5-9.5-7.9c0-3.9,3.8-6.9,9.1-6.9c3.7,0,6.7,1.5,9.8,5.1l6.4-8.4c-5.3-4.6-11.5-6.9-18.4-6.9
		c-11.1,0-19.5,7.7-19.5,17.9c0,8.6,3.9,13,15.4,17.2c4.8,1.7,7.2,2.8,8.4,3.6c2.4,1.6,3.7,3.8,3.7,6.5c0,5.1-4,8.8-9.5,8.8
		c-5.8,0-10.5-2.9-13.3-8.3l-7.9,7.6c5.6,8.3,12.4,11.9,21.7,11.9c12.7,0,21.6-8.4,21.6-20.6C842.5,72.4,838.4,67.9,824.5,62.8z
		 M846.4,70.1c0,18.4,14.5,32.7,33,32.7c5.3,0,9.8-1,15.3-3.6V84.8c-4.9,4.9-9.2,6.9-14.7,6.9c-12.3,0-21-8.9-21-21.6
		c0-12,9-21.5,20.5-21.5c5.8,0,10.2,2.1,15.3,7V41.2c-5.4-2.7-9.8-3.8-15-3.8C861.2,37.4,846.4,51.9,846.4,70.1L846.4,70.1z
		 M994.7,103l27-64.2h-13.2l-16.9,42.1l-16.7-42.1h-13.3l26.6,64.2H994.7z M1039.5,73.9h21.6V63.3h-21.6V49.4h22.4V38.8h-34.6v62.6
		h34.6V90.8h-22.4V73.9z M1110.2,57.3c0-11.7-8.1-18.5-22.2-18.5h-18v62.6h12.2V76.3h1.6l16.9,25.2h15L1096,75
		C1105.2,73.2,1110.2,66.9,1110.2,57.3z M1085.7,67.6h-3.6v-19h3.8c7.6,0,11.7,3.2,11.7,9.3C1097.7,64.2,1093.5,67.6,1085.7,67.6
		L1085.7,67.6z"/>
	<g transform="translate(-.594 -37.558998)">
		
			<linearGradient id="SVGID_1_" gradientUnits="userSpaceOnUse" x1="950.8356" y1="-698.8589" x2="927.7739" y2="-662.7513" gradientTransform="matrix(1 0 0 -1 -1.188 -564.2677)">
			<stop  offset="0" style="stop-color:#F89F21"/>
			<stop  offset="0.2502" style="stop-color:#F79A23"/>
			<stop  offset="0.5331" style="stop-color:#F78E22"/>
			<stop  offset="0.6196" style="stop-color:#F68721"/>
			<stop  offset="0.7232" style="stop-color:#F48220"/>
			<stop  offset="1" style="stop-color:#F27623"/>
		</linearGradient>
		<circle class="st1" cx="932.6" cy="107.9" r="33.3"/>
		
			<linearGradient id="SVGID_2_" gradientUnits="userSpaceOnUse" x1="947.1909" y1="-698.3645" x2="913.4858" y2="-632.4859" gradientTransform="matrix(1 0 0 -1 -1.188 -564.2677)">
			<stop  offset="0" style="stop-color:#F68721;stop-opacity:0"/>
			<stop  offset="0.3587" style="stop-color:#E27027;stop-opacity:0.2704"/>
			<stop  offset="0.703" style="stop-color:#D4612C;stop-opacity:0.5299"/>
			<stop  offset="0.9816" style="stop-color:#D15D2D;stop-opacity:0.74"/>
		</linearGradient>
		<circle class="st2" cx="932.6" cy="107.9" r="33.3"/>
	</g>
</g>
<g>
	<path class="st3" d="M58.7,31.1h42v75.5h-42C58.7,106.6,58.7,31.1,58.7,31.1z"/>
	<path class="st4" d="M61.3,68.9c0-14.7,6.7-28.6,18.3-37.7C60,15.6,31.7,17.9,14.7,36.3s-17,46.7,0,65.1s45.2,20.6,64.9,5.2
		C68.1,97.5,61.3,83.6,61.3,68.9z"/>
	<path class="st5" d="M157.3,68.9c0,26.5-21.5,48-48,48c-10.8,0-21.2-3.6-29.7-10.3C91.2,97.5,98,83.6,98,68.9s-6.8-28.6-18.3-37.7
		c20.8-16.4,51-12.8,67.4,8.1C153.7,47.7,157.3,58.1,157.3,68.9z M152.7,98.6v-1.5h0.6v-0.3h-1.6v0.3h0.6v1.5H152.7z M155.8,98.6
		v-1.9h-0.5l-0.6,1.3l-0.6-1.3h-0.5v1.9h0.3v-1.4l0.5,1.2h0.4l0.5-1.2v1.4H155.8z"/>
</g>
<g>
	
		<linearGradient id="SVGID_3_" gradientUnits="userSpaceOnUse" x1="959.4761" y1="-15.8209" x2="959.5651" y2="-14.8009" gradientTransform="matrix(256 0 0 -82.6684 -245310 -1195.8418)">
		<stop  offset="0" style="stop-color:#222357"/>
		<stop  offset="1" style="stop-color:#254AA5"/>
	</linearGradient>
	<path class="st6" d="M331.6,54.2c-0.1,11.5,10.3,17.9,18.1,21.8c8.1,3.9,10.8,6.4,10.7,9.9c-0.1,5.4-6.4,7.7-12.4,7.8
		c-10.4,0.2-16.4-2.8-21.2-5.1l-3.7,17.5c4.8,2.2,13.7,4.2,23,4.2c21.7,0,35.9-10.7,36-27.4c0.1-21.1-29.2-22.3-29-31.7
		c0.1-2.9,2.8-5.9,8.8-6.7c3-0.4,11.1-0.7,20.4,3.6l3.6-17c-5-1.8-11.4-3.6-19.4-3.6C346.1,27.8,331.7,38.6,331.6,54.2 M420.8,29.2
		c-4,0-7.3,2.3-8.8,5.9l-31,74.1h21.7l4.3-11.9h26.5l2.5,11.9h19.1l-16.7-80L420.8,29.2 M423.9,50.8l6.3,30H413L423.9,50.8
		 M305.3,29.2l-17.1,80h20.7l17.1-80L305.3,29.2 M274.7,29.2l-21.5,54.4l-8.7-46.3c-1-5.2-5.1-8.1-9.5-8.1h-35.2l-0.5,2.3
		c7.2,1.6,15.4,4.1,20.4,6.8c3,1.7,3.9,3.1,4.9,7l16.5,63.8H263l33.5-80L274.7,29.2"/>
</g>
<g>
	<path class="st7" d="M601.7,134.9c36.4,0.2,69.7-29.7,69.7-66c0-39.7-33.3-67.1-69.7-67.1h-31.4c-36.9,0-67.2,27.4-67.2,67.1
		c0,36.3,30.4,66.1,67.2,66H601.7"/>
	<path class="st8" d="M584.3,104.2v-72c14.5,5.6,24.8,19.6,24.8,36C609.1,84.7,598.8,98.7,584.3,104.2 M531.8,68.2
		c0-16.4,10.3-30.5,24.8-36v72.1C542.1,98.7,531.8,84.6,531.8,68.2 M570.5,7.3c-33.7,0-61,27.3-61,60.9s27.3,60.9,61,60.9
		s61-27.3,61-60.9S604.2,7.3,570.5,7.3"/>
</g>
</svg>
