<?xml version="1.0" standalone="no"?>
<!DOCTYPE svg PUBLIC "-//W3C//DTD SVG 20010904//EN"
 "http://www.w3.org/TR/2001/REC-SVG-20010904/DTD/svg10.dtd">
<svg version="1.0" xmlns="http://www.w3.org/2000/svg"
 width="255.000000pt" height="72.000000pt" viewBox="0 0 255.000000 72.000000"
 preserveAspectRatio="xMidYMid meet">

<g transform="translate(0.000000,72.000000) scale(0.100000,-0.100000)"
fill="#000000" stroke="none">
<path d="M507 463 c-4 -3 -7 -51 -7 -105 0 -89 2 -99 18 -96 12 2 18 14 20 41
4 52 33 50 57 -3 12 -26 25 -40 37 -40 23 0 23 7 -2 47 -18 30 -18 34 -3 61
21 37 11 80 -23 92 -29 11 -87 13 -97 3z m87 -39 c9 -8 16 -19 16 -23 0 -15
-25 -31 -47 -31 -20 0 -23 5 -23 35 0 28 4 35 19 35 11 0 27 -7 35 -16z"/>
<path d="M707 463 c-4 -3 -7 -51 -7 -105 l0 -98 65 0 c51 0 65 3 65 15 0 11
-12 15 -45 15 -43 0 -45 1 -45 30 0 28 3 30 36 30 45 0 42 24 -4 28 -28 3 -32
7 -32 33 0 27 2 29 40 29 29 0 40 4 40 15 0 11 -13 15 -53 15 -30 0 -57 -3
-60 -7z"/>
<path d="M914 451 c-67 -41 -65 -143 3 -179 45 -24 123 -9 123 24 0 12 -5 14
-17 9 -70 -30 -123 -4 -123 59 0 44 41 81 80 71 44 -10 53 -10 57 1 4 13 -39
34 -70 34 -12 0 -36 -9 -53 -19z"/>
<path d="M1107 464 c-4 -4 -7 -52 -7 -106 0 -89 2 -99 18 -96 12 2 18 15 20
46 l3 42 44 0 44 0 3 -42 c2 -32 8 -44 21 -46 16 -3 17 5 15 100 -2 84 -6 103
-18 103 -10 0 -16 -13 -18 -42 l-3 -43 -44 0 -44 0 -3 42 c-3 39 -16 57 -31
42z"/>
<path d="M1340 365 c0 -87 3 -105 15 -105 12 0 15 15 15 77 l0 77 36 -60 c78
-130 94 -128 94 12 0 80 -3 105 -12 102 -8 -3 -15 -32 -18 -76 l-5 -72 -48 75
c-67 105 -77 101 -77 -30z"/>
<path d="M1577 463 c-4 -3 -7 -41 -7 -83 0 -67 3 -79 23 -98 30 -29 89 -30
117 -2 17 17 20 33 20 106 0 64 -3 85 -12 82 -9 -3 -14 -30 -16 -78 -3 -83
-12 -100 -53 -100 -38 0 -49 24 -49 109 0 65 -6 82 -23 64z"/>
<path d="M1807 463 c-4 -3 -7 -51 -7 -105 0 -80 3 -98 15 -98 12 0 15 15 15
76 l0 77 50 -77 c36 -55 56 -76 68 -74 15 3 17 17 17 103 0 82 -3 100 -15 100
-12 0 -16 -16 -18 -73 l-3 -73 -49 75 c-48 73 -59 84 -73 69z"/>
<path d="M2085 461 c-55 -24 -79 -95 -51 -149 22 -43 46 -53 118 -49 l63 3 0
50 c0 47 -1 49 -29 49 -16 0 -31 -6 -33 -12 -3 -7 2 -13 11 -13 21 0 21 -36 0
-44 -57 -22 -107 13 -102 71 4 52 44 81 93 66 36 -11 57 -1 37 19 -13 13 -83
20 -107 9z"/>
</g>
</svg>
