<svg id="Vector" xmlns="http://www.w3.org/2000/svg" xmlns:xlink="http://www.w3.org/1999/xlink" x="0px" y="0px" viewBox="0 0 658.6 135" width="658.6" height="135" enable-background="new 0 0 658.6 135" xml:space="preserve"><g><path fill="#193852" d="M191.7,44.7v34.6c0,5.8-1.8,10.3-5.4,13.7c-3.6,3.3-8.5,5-14.8,5c-6.1,0-11-1.6-14.6-4.9s-5.5-7.7-5.5-13.4 v-35h10.8v34.7c0,3.4,0.8,6,2.5,7.5c1.6,1.6,3.9,2.4,6.8,2.4c6.1,0,9.2-3.2,9.3-9.6v-35H191.7z M167.6,36.8c0,1.3-0.5,2.4-1.4,3.2 c-0.9,0.9-2.1,1.3-3.6,1.3c-1.5,0-2.7-0.4-3.6-1.3c-0.9-0.9-1.4-2-1.4-3.2c0-1.3,0.5-2.3,1.4-3.2c0.9-0.9,2.1-1.4,3.6-1.4 s2.7,0.5,3.6,1.4C167.2,34.5,167.6,35.5,167.6,36.8z M175.2,36.8c0-1.3,0.5-2.4,1.5-3.3c1-0.9,2.2-1.3,3.6-1.3 c1.4,0,2.6,0.4,3.6,1.3c1,0.9,1.4,2,1.4,3.3c0,1.3-0.5,2.3-1.4,3.2c-0.9,0.9-2.1,1.4-3.6,1.4c-1.5,0-2.7-0.5-3.6-1.4 C175.7,39.1,175.2,38.1,175.2,36.8z"></path><path fill="#193852" d="M205.1,97.3V44.7h18.4c6.4,0,11.2,1.2,14.5,3.7c3.3,2.4,4.9,6,4.9,10.7c0,2.6-0.7,4.8-2,6.8 c-1.3,2-3.2,3.4-5.5,4.3c2.7,0.7,4.8,2,6.4,4.1c1.6,2,2.3,4.6,2.3,7.5c0,5.1-1.6,8.9-4.8,11.5s-7.8,3.9-13.8,4H205.1z M215.9,66.8 h8c5.5-0.1,8.2-2.3,8.2-6.5c0-2.4-0.7-4.1-2.1-5.1c-1.4-1-3.6-1.6-6.6-1.6h-7.6V66.8z M215.9,74.4v14.2h9.3c2.6,0,4.5-0.6,6-1.8 c1.4-1.2,2.1-2.9,2.1-5c0-4.8-2.5-7.3-7.5-7.3H215.9z"></path><path fill="#193852" d="M283.9,74.5h-20.8v14.1h24.4v8.7h-35.3V44.7h35.2v8.8h-24.3V66h20.8V74.5z"></path><path fill="#193852" d="M313.3,78.1h-8.6v19.3h-10.8V44.7h19.5c6.2,0,11,1.4,14.4,4.2c3.4,2.8,5.1,6.7,5.1,11.7 c0,3.6-0.8,6.6-2.3,9c-1.6,2.4-3.9,4.3-7.1,5.7l11.4,21.5v0.5h-11.6L313.3,78.1z M304.7,69.3h8.7c2.7,0,4.8-0.7,6.3-2.1 c1.5-1.4,2.2-3.3,2.2-5.7c0-2.5-0.7-4.4-2.1-5.9c-1.4-1.4-3.6-2.1-6.5-2.1h-8.7V69.3z"></path><path fill="#193852" d="M382,82.1l7.1-37.4h10.8l-11.7,52.6h-10.9l-8.6-35.2l-8.6,35.2h-10.9l-11.7-52.6h10.8l7.1,37.4l8.7-37.4 h9.2L382,82.1z"></path><path fill="#193852" d="M437.4,74.5h-20.8v14.1H441v8.7h-35.3V44.7H441v8.8h-24.3V66h20.8V74.5z"></path><path fill="#193852" d="M458.9,97.3h-10.8V44.7h10.8V97.3z"></path><path fill="#193852" d="M496.2,83.5c0-2-0.7-3.6-2.2-4.7c-1.4-1.1-4-2.3-7.8-3.5c-3.8-1.2-6.7-2.4-8.9-3.6c-6-3.2-9-7.6-9-13 c0-2.8,0.8-5.4,2.4-7.6c1.6-2.2,3.9-4,6.9-5.2S484,44,487.8,44c3.8,0,7.1,0.7,10,2c2.9,1.4,5.2,3.3,6.8,5.8 c1.6,2.5,2.4,5.3,2.4,8.5h-10.8c0-2.4-0.8-4.3-2.3-5.6c-1.5-1.3-3.6-2-6.4-2c-2.6,0-4.7,0.6-6.2,1.7c-1.5,1.1-2.2,2.6-2.2,4.4 c0,1.7,0.9,3.1,2.6,4.3c1.7,1.2,4.3,2.2,7.6,3.3c6.2,1.9,10.7,4.2,13.5,6.9c2.8,2.7,4.2,6.2,4.2,10.3c0,4.6-1.7,8.1-5.2,10.7 c-3.4,2.6-8.1,3.9-13.9,3.9c-4,0-7.7-0.7-11.1-2.2s-5.9-3.5-7.6-6.1c-1.7-2.6-2.6-5.6-2.6-9h10.9c0,5.8,3.5,8.7,10.4,8.7 c2.6,0,4.6-0.5,6-1.6C495.5,86.9,496.2,85.4,496.2,83.5z"></path><path fill="#193852" d="M554.2,44.7v34.6c0,5.8-1.8,10.3-5.4,13.7c-3.6,3.3-8.5,5-14.8,5c-6.1,0-11-1.6-14.6-4.9s-5.5-7.7-5.5-13.4 v-35h10.8v34.7c0,3.4,0.8,6,2.5,7.5s3.9,2.4,6.8,2.4c6.1,0,9.2-3.2,9.3-9.6v-35H554.2z"></path><path fill="#193852" d="M605.9,97.3h-10.8L574,62.7v34.6h-10.8V44.7H574l21.1,34.7V44.7h10.8V97.3z"></path><path fill="#193852" d="M657,90.7c-2,2.3-4.7,4.1-8.3,5.4c-3.6,1.3-7.5,1.9-11.8,1.9c-4.6,0-8.5-1-12-3c-3.4-2-6.1-4.9-7.9-8.7 c-1.9-3.8-2.8-8.2-2.9-13.3v-3.6c0-5.2,0.9-9.8,2.7-13.6c1.8-3.8,4.3-6.8,7.7-8.8c3.3-2,7.2-3.1,11.7-3.1c6.2,0,11.1,1.5,14.6,4.5 s5.6,7.3,6.2,13h-10.5c-0.5-3-1.5-5.2-3.2-6.6c-1.6-1.4-3.9-2.1-6.8-2.1c-3.7,0-6.5,1.4-8.4,4.2c-1.9,2.8-2.9,6.9-2.9,12.4v3.4 c0,5.5,1,9.7,3.1,12.5c2.1,2.8,5.2,4.2,9.2,4.2c4.1,0,7-0.9,8.7-2.6v-9.1h-9.9v-8H657V90.7z"></path></g><desc>https://secupay.com/</desc><g id="qr_code_https:_x2F__x2F_secupay.com"><rect y="0.5" width="5.4" height="5.4"></rect><rect x="5.4" y="0.5" width="5.4" height="5.4"></rect><rect x="10.8" y="0.5" width="5.4" height="5.4"></rect><rect x="16.1" y="0.5" width="5.4" height="5.4"></rect><rect x="21.5" y="0.5" width="5.4" height="5.4"></rect><rect x="26.9" y="0.5" width="5.4" height="5.4"></rect><rect x="32.3" y="0.5" width="5.4" height="5.4"></rect><rect x="43" y="0.5" width="5.4" height="5.4"></rect><rect x="53.8" y="0.5" width="5.4" height="5.4"></rect><rect x="59.2" y="0.5" width="5.4" height="5.4"></rect><rect x="64.6" y="0.5" width="5.4" height="5.4"></rect><rect x="75.3" y="0.5" width="5.4" height="5.4"></rect><rect x="96.8" y="0.5" width="5.4" height="5.4"></rect><rect x="102.2" y="0.5" width="5.4" height="5.4"></rect><rect x="107.6" y="0.5" width="5.4" height="5.4"></rect><rect x="113" y="0.5" width="5.4" height="5.4"></rect><rect x="118.4" y="0.5" width="5.4" height="5.4"></rect><rect x="123.7" y="0.5" width="5.4" height="5.4"></rect><rect x="129.1" y="0.5" width="5.4" height="5.4"></rect><rect y="5.9" width="5.4" height="5.4"></rect><rect x="32.3" y="5.9" width="5.4" height="5.4"></rect><rect x="48.4" y="5.9" width="5.4" height="5.4"></rect><rect x="59.2" y="5.9" width="5.4" height="5.4"></rect><rect x="64.6" y="5.9" width="5.4" height="5.4"></rect><rect x="69.9" y="5.9" width="5.4" height="5.4"></rect><rect x="75.3" y="5.9" width="5.4" height="5.4"></rect><rect x="86.1" y="5.9" width="5.4" height="5.4"></rect><rect x="96.8" y="5.9" width="5.4" height="5.4"></rect><rect x="129.1" y="5.9" width="5.4" height="5.4"></rect><rect y="11.3" width="5.4" height="5.4"></rect><rect x="10.8" y="11.3" width="5.4" height="5.4"></rect><rect x="16.1" y="11.3" width="5.4" height="5.4"></rect><rect x="21.5" y="11.3" width="5.4" height="5.4"></rect><rect x="32.3" y="11.3" width="5.4" height="5.4"></rect><rect x="43" y="11.3" width="5.4" height="5.4"></rect><rect x="53.8" y="11.3" width="5.4" height="5.4"></rect><rect x="64.6" y="11.3" width="5.4" height="5.4"></rect><rect x="69.9" y="11.3" width="5.4" height="5.4"></rect><rect x="86.1" y="11.3" width="5.4" height="5.4"></rect><rect x="96.8" y="11.3" width="5.4" height="5.4"></rect><rect x="107.6" y="11.3" width="5.4" height="5.4"></rect><rect x="113" y="11.3" width="5.4" height="5.4"></rect><rect x="118.4" y="11.3" width="5.4" height="5.4"></rect><rect x="129.1" y="11.3" width="5.4" height="5.4"></rect><rect y="16.6" width="5.4" height="5.4"></rect><rect x="10.8" y="16.6" width="5.4" height="5.4"></rect><rect x="16.1" y="16.6" width="5.4" height="5.4"></rect><rect x="21.5" y="16.6" width="5.4" height="5.4"></rect><rect x="32.3" y="16.6" width="5.4" height="5.4"></rect><rect x="69.9" y="16.6" width="5.4" height="5.4"></rect><rect x="75.3" y="16.6" width="5.4" height="5.4"></rect><rect x="96.8" y="16.6" width="5.4" height="5.4"></rect><rect x="107.6" y="16.6" width="5.4" height="5.4"></rect><rect x="113" y="16.6" width="5.4" height="5.4"></rect><rect x="118.4" y="16.6" width="5.4" height="5.4"></rect><rect x="129.1" y="16.6" width="5.4" height="5.4"></rect><rect y="22" width="5.4" height="5.4"></rect><rect x="10.8" y="22" width="5.4" height="5.4"></rect><rect x="16.1" y="22" width="5.4" height="5.4"></rect><rect x="21.5" y="22" width="5.4" height="5.4"></rect><rect x="32.3" y="22" width="5.4" height="5.4"></rect><rect x="48.4" y="22" width="5.4" height="5.4"></rect><rect x="59.2" y="22" width="5.4" height="5.4"></rect><rect x="64.6" y="22" width="5.4" height="5.4"></rect><rect x="75.3" y="22" width="5.4" height="5.4"></rect><rect x="96.8" y="22" width="5.4" height="5.4"></rect><rect x="107.6" y="22" width="5.4" height="5.4"></rect><rect x="113" y="22" width="5.4" height="5.4"></rect><rect x="118.4" y="22" width="5.4" height="5.4"></rect><rect x="129.1" y="22" width="5.4" height="5.4"></rect><rect y="27.4" width="5.4" height="5.4"></rect><rect x="32.3" y="27.4" width="5.4" height="5.4"></rect><rect x="43" y="27.4" width="5.4" height="5.4"></rect><rect x="64.6" y="27.4" width="5.4" height="5.4"></rect><rect x="75.3" y="27.4" width="5.4" height="5.4"></rect><rect x="96.8" y="27.4" width="5.4" height="5.4"></rect><rect x="129.1" y="27.4" width="5.4" height="5.4"></rect><rect y="32.8" width="5.4" height="5.4"></rect><rect x="5.4" y="32.8" width="5.4" height="5.4"></rect><rect x="10.8" y="32.8" width="5.4" height="5.4"></rect><rect x="16.1" y="32.8" width="5.4" height="5.4"></rect><rect x="21.5" y="32.8" width="5.4" height="5.4"></rect><rect x="26.9" y="32.8" width="5.4" height="5.4"></rect><rect x="32.3" y="32.8" width="5.4" height="5.4"></rect><rect x="43" y="32.8" width="5.4" height="5.4"></rect><rect x="53.8" y="32.8" width="5.4" height="5.4"></rect><rect x="64.6" y="32.8" width="5.4" height="5.4"></rect><rect x="75.3" y="32.8" width="5.4" height="5.4"></rect><rect x="86.1" y="32.8" width="5.4" height="5.4"></rect><rect x="96.8" y="32.8" width="5.4" height="5.4"></rect><rect x="102.2" y="32.8" width="5.4" height="5.4"></rect><rect x="107.6" y="32.8" width="5.4" height="5.4"></rect><rect x="113" y="32.8" width="5.4" height="5.4"></rect><rect x="118.4" y="32.8" width="5.4" height="5.4"></rect><rect x="123.7" y="32.8" width="5.4" height="5.4"></rect><rect x="129.1" y="32.8" width="5.4" height="5.4"></rect><rect x="59.2" y="38.2" width="5.4" height="5.4"></rect><rect x="64.6" y="38.2" width="5.4" height="5.4"></rect><rect x="75.3" y="38.2" width="5.4" height="5.4"></rect><rect x="80.7" y="38.2" width="5.4" height="5.4"></rect><rect x="86.1" y="38.2" width="5.4" height="5.4"></rect><rect y="43.5" width="5.4" height="5.4"></rect><rect x="10.8" y="43.5" width="5.4" height="5.4"></rect><rect x="32.3" y="43.5" width="5.4" height="5.4"></rect><rect x="37.7" y="43.5" width="5.4" height="5.4"></rect><rect x="53.8" y="43.5" width="5.4" height="5.4"></rect><rect x="59.2" y="43.5" width="5.4" height="5.4"></rect><rect x="75.3" y="43.5" width="5.4" height="5.4"></rect><rect x="86.1" y="43.5" width="5.4" height="5.4"></rect><rect x="102.2" y="43.5" width="5.4" height="5.4"></rect><rect x="118.4" y="43.5" width="5.4" height="5.4"></rect><rect x="129.1" y="43.5" width="5.4" height="5.4"></rect><rect x="10.8" y="48.9" width="5.4" height="5.4"></rect><rect x="16.1" y="48.9" width="5.4" height="5.4"></rect><rect x="37.7" y="48.9" width="5.4" height="5.4"></rect><rect x="64.6" y="48.9" width="5.4" height="5.4"></rect><rect x="69.9" y="48.9" width="5.4" height="5.4"></rect><rect x="80.7" y="48.9" width="5.4" height="5.4"></rect><rect x="96.8" y="48.9" width="5.4" height="5.4"></rect><rect x="102.2" y="48.9" width="5.4" height="5.4"></rect><rect x="113" y="48.9" width="5.4" height="5.4"></rect><rect x="123.7" y="48.9" width="5.4" height="5.4"></rect><rect x="129.1" y="48.9" width="5.4" height="5.4"></rect><rect x="5.4" y="54.3" width="5.4" height="5.4"></rect><rect x="16.1" y="54.3" width="5.4" height="5.4"></rect><rect x="21.5" y="54.3" width="5.4" height="5.4"></rect><rect x="26.9" y="54.3" width="5.4" height="5.4"></rect><rect x="32.3" y="54.3" width="5.4" height="5.4"></rect><rect x="37.7" y="54.3" width="5.4" height="5.4"></rect><rect x="43" y="54.3" width="5.4" height="5.4"></rect><rect x="48.4" y="54.3" width="5.4" height="5.4"></rect><rect x="53.8" y="54.3" width="5.4" height="5.4"></rect><rect x="59.2" y="54.3" width="5.4" height="5.4"></rect><rect x="64.6" y="54.3" width="5.4" height="5.4"></rect><rect x="80.7" y="54.3" width="5.4" height="5.4"></rect><rect x="96.8" y="54.3" width="5.4" height="5.4"></rect><rect x="113" y="54.3" width="5.4" height="5.4"></rect><rect x="118.4" y="54.3" width="5.4" height="5.4"></rect><rect x="129.1" y="54.3" width="5.4" height="5.4"></rect><rect x="5.4" y="59.7" width="5.4" height="5.4"></rect><rect x="21.5" y="59.7" width="5.4" height="5.4"></rect><rect x="37.7" y="59.7" width="5.4" height="5.4"></rect><rect x="48.4" y="59.7" width="5.4" height="5.4"></rect><rect x="53.8" y="59.7" width="5.4" height="5.4"></rect><rect x="64.6" y="59.7" width="5.4" height="5.4"></rect><rect x="75.3" y="59.7" width="5.4" height="5.4"></rect><rect x="91.5" y="59.7" width="5.4" height="5.4"></rect><rect x="113" y="59.7" width="5.4" height="5.4"></rect><rect y="65.1" width="5.4" height="5.4"></rect><rect x="5.4" y="65.1" width="5.4" height="5.4"></rect><rect x="16.1" y="65.1" width="5.4" height="5.4"></rect><rect x="21.5" y="65.1" width="5.4" height="5.4"></rect><rect x="32.3" y="65.1" width="5.4" height="5.4"></rect><rect x="43" y="65.1" width="5.4" height="5.4"></rect><rect x="48.4" y="65.1" width="5.4" height="5.4"></rect><rect x="59.2" y="65.1" width="5.4" height="5.4"></rect><rect x="69.9" y="65.1" width="5.4" height="5.4"></rect><rect x="75.3" y="65.1" width="5.4" height="5.4"></rect><rect x="96.8" y="65.1" width="5.4" height="5.4"></rect><rect x="129.1" y="65.1" width="5.4" height="5.4"></rect><rect x="5.4" y="70.4" width="5.4" height="5.4"></rect><rect x="21.5" y="70.4" width="5.4" height="5.4"></rect><rect x="37.7" y="70.4" width="5.4" height="5.4"></rect><rect x="48.4" y="70.4" width="5.4" height="5.4"></rect><rect x="69.9" y="70.4" width="5.4" height="5.4"></rect><rect x="80.7" y="70.4" width="5.4" height="5.4"></rect><rect x="86.1" y="70.4" width="5.4" height="5.4"></rect><rect x="96.8" y="70.4" width="5.4" height="5.4"></rect><rect x="102.2" y="70.4" width="5.4" height="5.4"></rect><rect x="123.7" y="70.4" width="5.4" height="5.4"></rect><rect x="129.1" y="70.4" width="5.4" height="5.4"></rect><rect y="75.8" width="5.4" height="5.4"></rect><rect x="5.4" y="75.8" width="5.4" height="5.4"></rect><rect x="16.1" y="75.8" width="5.4" height="5.4"></rect><rect x="32.3" y="75.8" width="5.4" height="5.4"></rect><rect x="43" y="75.8" width="5.4" height="5.4"></rect><rect x="48.4" y="75.8" width="5.4" height="5.4"></rect><rect x="53.8" y="75.8" width="5.4" height="5.4"></rect><rect x="59.2" y="75.8" width="5.4" height="5.4"></rect><rect x="80.7" y="75.8" width="5.4" height="5.4"></rect><rect x="91.5" y="75.8" width="5.4" height="5.4"></rect><rect x="96.8" y="75.8" width="5.4" height="5.4"></rect><rect x="113" y="75.8" width="5.4" height="5.4"></rect><rect x="118.4" y="75.8" width="5.4" height="5.4"></rect><rect x="129.1" y="75.8" width="5.4" height="5.4"></rect><rect x="10.8" y="81.2" width="5.4" height="5.4"></rect><rect x="16.1" y="81.2" width="5.4" height="5.4"></rect><rect x="26.9" y="81.2" width="5.4" height="5.4"></rect><rect x="37.7" y="81.2" width="5.4" height="5.4"></rect><rect x="69.9" y="81.2" width="5.4" height="5.4"></rect><rect x="91.5" y="81.2" width="5.4" height="5.4"></rect><rect x="96.8" y="81.2" width="5.4" height="5.4"></rect><rect x="102.2" y="81.2" width="5.4" height="5.4"></rect><rect x="107.6" y="81.2" width="5.4" height="5.4"></rect><rect x="113" y="81.2" width="5.4" height="5.4"></rect><rect y="86.6" width="5.4" height="5.4"></rect><rect x="5.4" y="86.6" width="5.4" height="5.4"></rect><rect x="21.5" y="86.6" width="5.4" height="5.4"></rect><rect x="26.9" y="86.6" width="5.4" height="5.4"></rect><rect x="32.3" y="86.6" width="5.4" height="5.4"></rect><rect x="53.8" y="86.6" width="5.4" height="5.4"></rect><rect x="59.2" y="86.6" width="5.4" height="5.4"></rect><rect x="64.6" y="86.6" width="5.4" height="5.4"></rect><rect x="69.9" y="86.6" width="5.4" height="5.4"></rect><rect x="80.7" y="86.6" width="5.4" height="5.4"></rect><rect x="86.1" y="86.6" width="5.4" height="5.4"></rect><rect x="91.5" y="86.6" width="5.4" height="5.4"></rect><rect x="96.8" y="86.6" width="5.4" height="5.4"></rect><rect x="102.2" y="86.6" width="5.4" height="5.4"></rect><rect x="107.6" y="86.6" width="5.4" height="5.4"></rect><rect x="123.7" y="86.6" width="5.4" height="5.4"></rect><rect x="43" y="92" width="5.4" height="5.4"></rect><rect x="64.6" y="92" width="5.4" height="5.4"></rect><rect x="86.1" y="92" width="5.4" height="5.4"></rect><rect x="107.6" y="92" width="5.4" height="5.4"></rect><rect x="129.1" y="92" width="5.4" height="5.4"></rect><rect y="97.3" width="5.4" height="5.4"></rect><rect x="5.4" y="97.3" width="5.4" height="5.4"></rect><rect x="10.8" y="97.3" width="5.4" height="5.4"></rect><rect x="16.1" y="97.3" width="5.4" height="5.4"></rect><rect x="21.5" y="97.3" width="5.4" height="5.4"></rect><rect x="26.9" y="97.3" width="5.4" height="5.4"></rect><rect x="32.3" y="97.3" width="5.4" height="5.4"></rect><rect x="43" y="97.3" width="5.4" height="5.4"></rect><rect x="53.8" y="97.3" width="5.4" height="5.4"></rect><rect x="64.6" y="97.3" width="5.4" height="5.4"></rect><rect x="69.9" y="97.3" width="5.4" height="5.4"></rect><rect x="75.3" y="97.3" width="5.4" height="5.4"></rect><rect x="86.1" y="97.3" width="5.4" height="5.4"></rect><rect x="96.8" y="97.3" width="5.4" height="5.4"></rect><rect x="107.6" y="97.3" width="5.4" height="5.4"></rect><rect x="129.1" y="97.3" width="5.4" height="5.4"></rect><rect y="102.7" width="5.4" height="5.4"></rect><rect x="32.3" y="102.7" width="5.4" height="5.4"></rect><rect x="48.4" y="102.7" width="5.4" height="5.4"></rect><rect x="59.2" y="102.7" width="5.4" height="5.4"></rect><rect x="64.6" y="102.7" width="5.4" height="5.4"></rect><rect x="75.3" y="102.7" width="5.4" height="5.4"></rect><rect x="80.7" y="102.7" width="5.4" height="5.4"></rect><rect x="86.1" y="102.7" width="5.4" height="5.4"></rect><rect x="107.6" y="102.7" width="5.4" height="5.4"></rect><rect y="108.1" width="5.4" height="5.4"></rect><rect x="10.8" y="108.1" width="5.4" height="5.4"></rect><rect x="16.1" y="108.1" width="5.4" height="5.4"></rect><rect x="21.5" y="108.1" width="5.4" height="5.4"></rect><rect x="32.3" y="108.1" width="5.4" height="5.4"></rect><rect x="53.8" y="108.1" width="5.4" height="5.4"></rect><rect x="69.9" y="108.1" width="5.4" height="5.4"></rect><rect x="75.3" y="108.1" width="5.4" height="5.4"></rect><rect x="80.7" y="108.1" width="5.4" height="5.4"></rect><rect x="86.1" y="108.1" width="5.4" height="5.4"></rect><rect x="91.5" y="108.1" width="5.4" height="5.4"></rect><rect x="96.8" y="108.1" width="5.4" height="5.4"></rect><rect x="102.2" y="108.1" width="5.4" height="5.4"></rect><rect x="107.6" y="108.1" width="5.4" height="5.4"></rect><rect x="129.1" y="108.1" width="5.4" height="5.4"></rect><rect y="113.5" width="5.4" height="5.4"></rect><rect x="10.8" y="113.5" width="5.4" height="5.4"></rect><rect x="16.1" y="113.5" width="5.4" height="5.4"></rect><rect x="21.5" y="113.5" width="5.4" height="5.4"></rect><rect x="32.3" y="113.5" width="5.4" height="5.4"></rect><rect x="48.4" y="113.5" width="5.4" height="5.4"></rect><rect x="69.9" y="113.5" width="5.4" height="5.4"></rect><rect x="75.3" y="113.5" width="5.4" height="5.4"></rect><rect x="91.5" y="113.5" width="5.4" height="5.4"></rect><rect x="107.6" y="113.5" width="5.4" height="5.4"></rect><rect x="118.4" y="113.5" width="5.4" height="5.4"></rect><rect x="123.7" y="113.5" width="5.4" height="5.4"></rect><rect y="118.9" width="5.4" height="5.4"></rect><rect x="10.8" y="118.9" width="5.4" height="5.4"></rect><rect x="16.1" y="118.9" width="5.4" height="5.4"></rect><rect x="21.5" y="118.9" width="5.4" height="5.4"></rect><rect x="32.3" y="118.9" width="5.4" height="5.4"></rect><rect x="43" y="118.9" width="5.4" height="5.4"></rect><rect x="48.4" y="118.9" width="5.4" height="5.4"></rect><rect x="59.2" y="118.9" width="5.4" height="5.4"></rect><rect x="80.7" y="118.9" width="5.4" height="5.4"></rect><rect x="86.1" y="118.9" width="5.4" height="5.4"></rect><rect x="102.2" y="118.9" width="5.4" height="5.4"></rect><rect x="107.6" y="118.9" width="5.4" height="5.4"></rect><rect x="113" y="118.9" width="5.4" height="5.4"></rect><rect x="123.7" y="118.9" width="5.4" height="5.4"></rect><rect x="129.1" y="118.9" width="5.4" height="5.4"></rect><rect y="124.2" width="5.4" height="5.4"></rect><rect x="32.3" y="124.2" width="5.4" height="5.4"></rect><rect x="48.4" y="124.2" width="5.4" height="5.4"></rect><rect x="53.8" y="124.2" width="5.4" height="5.4"></rect><rect x="69.9" y="124.2" width="5.4" height="5.4"></rect><rect x="80.7" y="124.2" width="5.4" height="5.4"></rect><rect x="86.1" y="124.2" width="5.4" height="5.4"></rect><rect x="91.5" y="124.2" width="5.4" height="5.4"></rect><rect x="102.2" y="124.2" width="5.4" height="5.4"></rect><rect x="107.6" y="124.2" width="5.4" height="5.4"></rect><rect y="129.6" width="5.4" height="5.4"></rect><rect x="5.4" y="129.6" width="5.4" height="5.4"></rect><rect x="10.8" y="129.6" width="5.4" height="5.4"></rect><rect x="16.1" y="129.6" width="5.4" height="5.4"></rect><rect x="21.5" y="129.6" width="5.4" height="5.4"></rect><rect x="26.9" y="129.6" width="5.4" height="5.4"></rect><rect x="32.3" y="129.6" width="5.4" height="5.4"></rect><rect x="43" y="129.6" width="5.4" height="5.4"></rect><rect x="48.4" y="129.6" width="5.4" height="5.4"></rect><rect x="53.8" y="129.6" width="5.4" height="5.4"></rect><rect x="59.2" y="129.6" width="5.4" height="5.4"></rect><rect x="64.6" y="129.6" width="5.4" height="5.4"></rect><rect x="69.9" y="129.6" width="5.4" height="5.4"></rect><rect x="86.1" y="129.6" width="5.4" height="5.4"></rect><rect x="96.8" y="129.6" width="5.4" height="5.4"></rect><rect x="113" y="129.6" width="5.4" height="5.4"></rect><rect x="129.1" y="129.6" width="5.4" height="5.4"></rect></g></svg>

